<?xml version="1.0" encoding="UTF-8" standalone="no"?>
<!DOCTYPE svg PUBLIC "-//W3C//DTD SVG 1.1//EN"
 "http://www.w3.org/Graphics/SVG/1.1/DTD/svg11.dtd">
<!-- Generated by graphviz version 2.43.0 (0)
 -->
<!-- Title: %3 Pages: 1 -->
<svg width="555pt" height="116pt"
 viewBox="0.00 0.00 555.00 116.00" xmlns="http://www.w3.org/2000/svg" xmlns:xlink="http://www.w3.org/1999/xlink">
<g id="graph0" class="graph" transform="scale(1 1) rotate(0) translate(4 112)">
<title>%3</title>
<polygon fill="white" stroke="transparent" points="-4,4 -4,-112 551,-112 551,4 -4,4"/>
<!-- String -->
<g id="node1" class="node">
<title>String</title>
<polygon fill="none" stroke="black" points="89,-108 27,-108 27,-72 89,-72 89,-108"/>
<text text-anchor="middle" x="58" y="-86.3" font-family="Times,serif" font-size="14.00">String</text>
</g>
<!-- 简单动态字符串 -->
<g id="node2" class="node">
<title>简单动态字符串</title>
<polygon fill="none" stroke="black" points="116,-36 0,-36 0,0 116,0 116,-36"/>
<text text-anchor="middle" x="58" y="-14.3" font-family="Times,serif" font-size="14.00">简单动态字符串</text>
</g>
<!-- String&#45;&gt;简单动态字符串 -->
<g id="edge1" class="edge">
<title>String&#45;&gt;简单动态字符串</title>
<path fill="none" stroke="black" d="M58,-71.7C58,-63.98 58,-54.71 58,-46.11"/>
<polygon fill="black" stroke="black" points="61.5,-46.1 58,-36.1 54.5,-46.1 61.5,-46.1"/>
</g>
<!-- List -->
<g id="node3" class="node">
<title>List</title>
<polygon fill="none" stroke="black" points="199,-108 145,-108 145,-72 199,-72 199,-108"/>
<text text-anchor="middle" x="172" y="-86.3" font-family="Times,serif" font-size="14.00">List</text>
</g>
<!-- 双向链表 -->
<g id="node4" class="node">
<title>双向链表</title>
<polygon fill="none" stroke="black" points="208,-36 134,-36 134,0 208,0 208,-36"/>
<text text-anchor="middle" x="171" y="-14.3" font-family="Times,serif" font-size="14.00">双向链表</text>
</g>
<!-- List&#45;&gt;双向链表 -->
<g id="edge2" class="edge">
<title>List&#45;&gt;双向链表</title>
<path fill="none" stroke="black" d="M171.75,-71.7C171.64,-63.98 171.51,-54.71 171.39,-46.11"/>
<polygon fill="black" stroke="black" points="174.89,-46.05 171.24,-36.1 167.89,-46.15 174.89,-46.05"/>
</g>
<!-- 压缩列表 -->
<g id="node5" class="node">
<title>压缩列表</title>
<polygon fill="none" stroke="black" points="300,-36 226,-36 226,0 300,0 300,-36"/>
<text text-anchor="middle" x="263" y="-14.3" font-family="Times,serif" font-size="14.00">压缩列表</text>
</g>
<!-- List&#45;&gt;压缩列表 -->
<g id="edge3" class="edge">
<title>List&#45;&gt;压缩列表</title>
<path fill="none" stroke="black" d="M194.49,-71.7C205.96,-62.88 220.06,-52.03 232.48,-42.47"/>
<polygon fill="black" stroke="black" points="234.97,-44.98 240.76,-36.1 230.7,-39.43 234.97,-44.98"/>
</g>
<!-- Hash -->
<g id="node6" class="node">
<title>Hash</title>
<polygon fill="none" stroke="black" points="416,-108 362,-108 362,-72 416,-72 416,-108"/>
<text text-anchor="middle" x="389" y="-86.3" font-family="Times,serif" font-size="14.00">Hash</text>
</g>
<!-- Hash&#45;&gt;压缩列表 -->
<g id="edge4" class="edge">
<title>Hash&#45;&gt;压缩列表</title>
<path fill="none" stroke="black" d="M361.97,-73.98C344.74,-64.41 322.11,-51.84 302.84,-41.14"/>
<polygon fill="black" stroke="black" points="304.42,-38.01 293.98,-36.21 301.02,-44.13 304.42,-38.01"/>
</g>
<!-- 哈希表 -->
<g id="node7" class="node">
<title>哈希表</title>
<polygon fill="none" stroke="black" points="454.5,-36 395.5,-36 395.5,0 454.5,0 454.5,-36"/>
<text text-anchor="middle" x="425" y="-14.3" font-family="Times,serif" font-size="14.00">哈希表</text>
</g>
<!-- Hash&#45;&gt;哈希表 -->
<g id="edge5" class="edge">
<title>Hash&#45;&gt;哈希表</title>
<path fill="none" stroke="black" d="M397.9,-71.7C402,-63.73 406.95,-54.1 411.49,-45.26"/>
<polygon fill="black" stroke="black" points="414.74,-46.6 416.2,-36.1 408.52,-43.4 414.74,-46.6"/>
</g>
<!-- SortedSet -->
<g id="node8" class="node">
<title>SortedSet</title>
<polygon fill="none" stroke="black" points="307.5,-108 218.5,-108 218.5,-72 307.5,-72 307.5,-108"/>
<text text-anchor="middle" x="263" y="-86.3" font-family="Times,serif" font-size="14.00">SortedSet</text>
</g>
<!-- SortedSet&#45;&gt;压缩列表 -->
<g id="edge6" class="edge">
<title>SortedSet&#45;&gt;压缩列表</title>
<path fill="none" stroke="black" d="M263,-71.7C263,-63.98 263,-54.71 263,-46.11"/>
<polygon fill="black" stroke="black" points="266.5,-46.1 263,-36.1 259.5,-46.1 266.5,-46.1"/>
</g>
<!-- 跳跃表 -->
<g id="node9" class="node">
<title>跳跃表</title>
<polygon fill="none" stroke="black" points="377.5,-36 318.5,-36 318.5,0 377.5,0 377.5,-36"/>
<text text-anchor="middle" x="348" y="-14.3" font-family="Times,serif" font-size="14.00">跳跃表</text>
</g>
<!-- SortedSet&#45;&gt;跳跃表 -->
<g id="edge7" class="edge">
<title>SortedSet&#45;&gt;跳跃表</title>
<path fill="none" stroke="black" d="M284.01,-71.7C294.72,-62.88 307.89,-52.03 319.5,-42.47"/>
<polygon fill="black" stroke="black" points="321.74,-45.16 327.23,-36.1 317.29,-39.76 321.74,-45.16"/>
</g>
<!-- Set -->
<g id="node10" class="node">
<title>Set</title>
<polygon fill="none" stroke="black" points="488,-108 434,-108 434,-72 488,-72 488,-108"/>
<text text-anchor="middle" x="461" y="-86.3" font-family="Times,serif" font-size="14.00">Set</text>
</g>
<!-- Set&#45;&gt;哈希表 -->
<g id="edge8" class="edge">
<title>Set&#45;&gt;哈希表</title>
<path fill="none" stroke="black" d="M452.1,-71.7C448,-63.73 443.05,-54.1 438.51,-45.26"/>
<polygon fill="black" stroke="black" points="441.48,-43.4 433.8,-36.1 435.26,-46.6 441.48,-43.4"/>
</g>
<!-- 整数数组 -->
<g id="node11" class="node">
<title>整数数组</title>
<polygon fill="none" stroke="black" points="547,-36 473,-36 473,0 547,0 547,-36"/>
<text text-anchor="middle" x="510" y="-14.3" font-family="Times,serif" font-size="14.00">整数数组</text>
</g>
<!-- Set&#45;&gt;整数数组 -->
<g id="edge9" class="edge">
<title>Set&#45;&gt;整数数组</title>
<path fill="none" stroke="black" d="M473.11,-71.7C478.87,-63.47 485.86,-53.48 492.21,-44.42"/>
<polygon fill="black" stroke="black" points="495.16,-46.3 498.03,-36.1 489.42,-42.29 495.16,-46.3"/>
</g>
</g>
</svg>
