<svg version="1.1" xmlns="http://www.w3.org/2000/svg" viewBox="0 0 710.6666870117188 714.6667175292969" width="710.6666870117188" height="714.6667175292969">
  <!-- svg-source:excalidraw -->
  
  <defs>
    <style class="style-fonts">
      @font-face {
        font-family: "Virgil";
        src: url("https://unpkg.com/revedraw@1.0.0-alpha.10/dist/excalidraw-assets/Virgil.woff2");
      }
      @font-face {
        font-family: "Cascadia";
        src: url("https://unpkg.com/revedraw@1.0.0-alpha.10/dist/excalidraw-assets/Cascadia.woff2");
      }
    </style>
    
  </defs>
  <rect x="0" y="0" width="710.6666870117188" height="714.6667175292969" fill="#ffffff"></rect><g stroke-linecap="round" transform="translate(10 300) rotate(0 123.33334350585938 127.33334350585938)"><path d="M32 0 M32 0 C81.15 -1.06, 128.01 -3.45, 214.67 0 M32 0 C96.13 -1.52, 158.86 -1.39, 214.67 0 M214.67 0 C237.66 -0.52, 248.18 10.12, 246.67 32 M214.67 0 C235.5 0.03, 247.6 10.69, 246.67 32 M246.67 32 C244.04 90.76, 243.48 149.73, 246.67 222.67 M246.67 32 C245.78 104.97, 246.18 177.52, 246.67 222.67 M246.67 222.67 C246.92 245.22, 235.49 254.5, 214.67 254.67 M246.67 222.67 C248.01 243.9, 235.13 254.59, 214.67 254.67 M214.67 254.67 C174.3 255.94, 133.92 254.59, 32 254.67 M214.67 254.67 C144.99 254.63, 75.95 253.59, 32 254.67 M32 254.67 C12.29 253, 0.29 242.08, 0 222.67 M32 254.67 C12.53 253.56, 0.93 242.95, 0 222.67 M0 222.67 C3.33 159.34, 1.12 98.52, 0 32 M0 222.67 C2.21 182.72, 0.75 143.84, 0 32 M0 32 C-0.89 10.16, 9.58 0.81, 32 0 M0 32 C0.41 9.78, 10.78 -0.26, 32 0" stroke="#1e1e1e" stroke-width="1" fill="none"></path></g><g transform="translate(82.6666259765625 320) rotate(0 41.90996551513672 12.5)"><text x="0" y="0" font-family="HanziPen SC, HanziPen Remote, Virgil, KaiTi, Segoe UI Emoji" font-size="20px" fill="#1e1e1e" text-anchor="start" style="white-space: pre;" direction="ltr" dominant-baseline="text-before-edge">JobMaster</text></g><g stroke-linecap="round" transform="translate(43.3333740234375 358) rotate(0 90.33334350585938 22.666664123535156)"><path d="M11.33 0 M11.33 0 C69.18 1.33, 128.07 -1.22, 169.33 0 M11.33 0 C56 -1.6, 99.87 -1.74, 169.33 0 M169.33 0 C178.74 0.87, 181.07 2.01, 180.67 11.33 M169.33 0 C174.61 0.81, 181.35 5.89, 180.67 11.33 M180.67 11.33 C182.68 17.51, 181.73 23.64, 180.67 34 M180.67 11.33 C180.63 17.19, 180.2 22.02, 180.67 34 M180.67 34 C180.5 40, 176.16 44.89, 169.33 45.33 M180.67 34 C179.88 42.97, 178.14 43.5, 169.33 45.33 M169.33 45.33 C127.64 44.14, 89.47 46.45, 11.33 45.33 M169.33 45.33 C111.95 45.99, 55.66 46.92, 11.33 45.33 M11.33 45.33 C3.94 47.18, -1.37 43.29, 0 34 M11.33 45.33 C3.77 45.06, 0.98 41.55, 0 34 M0 34 C-0.09 27.81, 1.04 19.23, 0 11.33 M0 34 C-0.53 27.88, -0.15 22.79, 0 11.33 M0 11.33 C0.54 4.06, 1.89 -0.34, 11.33 0 M0 11.33 C0.41 1.63, 3.29 0.78, 11.33 0" stroke="#1e1e1e" stroke-width="1" fill="none"></path></g><g transform="translate(109.99993896484375 368.66664123535156) rotate(0 29.40996551513672 12.5)"><text x="0" y="0" font-family="HanziPen SC, HanziPen Remote, Virgil, KaiTi, Segoe UI Emoji" font-size="20px" fill="#1e1e1e" text-anchor="start" style="white-space: pre;" direction="ltr" dominant-baseline="text-before-edge">SlotPool</text></g><g stroke-linecap="round" transform="translate(40.333251953125 417.66661834716797) rotate(0 90.66668701171875 22.666664123535156)"><path d="M11.33 0 M11.33 0 C69.4 -2.03, 132.06 -2.28, 170 0 M11.33 0 C66.46 0.42, 119.95 0.92, 170 0 M170 0 C178.29 -1.71, 179.94 1.96, 181.33 11.33 M170 0 C177.57 0.28, 179.09 1.83, 181.33 11.33 M181.33 11.33 C181.56 19.56, 181.23 25.01, 181.33 34 M181.33 11.33 C182.27 17.24, 181.52 21.29, 181.33 34 M181.33 34 C183.1 39.66, 177.2 45.15, 170 45.33 M181.33 34 C182.47 40.68, 178.88 46, 170 45.33 M170 45.33 C108.12 48.66, 44.98 47.9, 11.33 45.33 M170 45.33 C129.81 44.62, 91.04 44.08, 11.33 45.33 M11.33 45.33 C2.51 45.91, -1.77 40.71, 0 34 M11.33 45.33 C2.49 45.45, -1.71 43.61, 0 34 M0 34 C-0.05 28.05, 1.78 26.5, 0 11.33 M0 34 C0.38 29.12, -0.55 24.16, 0 11.33 M0 11.33 C-1.51 4, 1.91 1.41, 11.33 0 M0 11.33 C1.28 3.81, 3.76 0.38, 11.33 0" stroke="#1e1e1e" stroke-width="1" fill="none"></path></g><g transform="translate(56.999755859375 426.33325958251953) rotate(0 75.5799331665039 12.5)"><text x="0" y="0" font-family="HanziPen SC, HanziPen Remote, Virgil, KaiTi, Segoe UI Emoji" font-size="20px" fill="#1e1e1e" text-anchor="start" style="white-space: pre;" direction="ltr" dominant-baseline="text-before-edge">SlotSharingManager</text></g><g stroke-linecap="round" transform="translate(41.33331298828125 480.9999313354492) rotate(0 90.66668701171875 22.666664123535156)"><path d="M11.33 0 M11.33 0 C43.53 -0.45, 79.02 0.16, 170 0 M11.33 0 C55.29 0.14, 97.86 0.78, 170 0 M170 0 C175.75 0.11, 179.76 5.19, 181.33 11.33 M170 0 C177.3 2.11, 183.26 3.91, 181.33 11.33 M181.33 11.33 C181.96 15.13, 181.96 20.48, 181.33 34 M181.33 11.33 C182.42 19.34, 180.89 29.59, 181.33 34 M181.33 34 C180.79 41.87, 178.22 46.32, 170 45.33 M181.33 34 C180.22 41.49, 178.4 47.44, 170 45.33 M170 45.33 C123.74 46.02, 75.77 47.16, 11.33 45.33 M170 45.33 C120.4 45.32, 69.84 45.46, 11.33 45.33 M11.33 45.33 C3.56 47.21, 0.28 43.06, 0 34 M11.33 45.33 C5.19 43.29, -0.23 39.63, 0 34 M0 34 C1.43 25.53, -1.87 16.55, 0 11.33 M0 34 C-0.53 26.79, 0.81 17.3, 0 11.33 M0 11.33 C0.27 2.62, 3.56 -0.79, 11.33 0 M0 11.33 C1.21 4.21, 4.29 -2.29, 11.33 0" stroke="#1e1e1e" stroke-width="1" fill="none"></path></g><g transform="translate(51.99981689453125 490.33325958251953) rotate(0 80.73991394042969 12.5)"><text x="0" y="0" font-family="HanziPen SC, HanziPen Remote, Virgil, KaiTi, Segoe UI Emoji" font-size="20px" fill="#1e1e1e" text-anchor="start" style="white-space: pre;" direction="ltr" dominant-baseline="text-before-edge">SlotSelectionStrategy</text></g><g stroke-linecap="round" transform="translate(455.99993896484375 512) rotate(0 122.3333740234375 96.33335876464844)"><path d="M32 0 M32 0 C89.14 -1.21, 143.16 -0.59, 212.67 0 M32 0 C85.7 -0.58, 140.11 -1.69, 212.67 0 M212.67 0 C232.45 0.95, 244.11 9.16, 244.67 32 M212.67 0 C234.78 -1.72, 242.59 12.43, 244.67 32 M244.67 32 C245.42 71.16, 243.34 113.2, 244.67 160.67 M244.67 32 C244.34 67.94, 245.61 104.23, 244.67 160.67 M244.67 160.67 C243.37 182.46, 233.88 190.89, 212.67 192.67 M244.67 160.67 C246.46 181.86, 231.96 193.76, 212.67 192.67 M212.67 192.67 C161.51 194.86, 107.79 195.31, 32 192.67 M212.67 192.67 C151.06 192.11, 86.89 192.25, 32 192.67 M32 192.67 C11.4 191.94, 1.37 182.37, 0 160.67 M32 192.67 C10.59 193.55, 1.2 181.11, 0 160.67 M0 160.67 C-1.24 122.74, 1.44 81.69, 0 32 M0 160.67 C-0.75 109.07, -1.17 58.78, 0 32 M0 32 C1.81 9.09, 10.58 1.62, 32 0 M0 32 C-0.29 10.99, 10.46 0.73, 32 0" stroke="#1e1e1e" stroke-width="1" fill="none"></path></g><g transform="translate(527.3333740234375 525.3333129882812) rotate(0 51.57996368408203 12.5)"><text x="0" y="0" font-family="HanziPen SC, HanziPen Remote, Virgil, KaiTi, Segoe UI Emoji" font-size="20px" fill="#1e1e1e" text-anchor="start" style="white-space: pre;" direction="ltr" dominant-baseline="text-before-edge">TaskManager</text></g><g stroke-linecap="round" transform="translate(494.6666259765625 578) rotate(0 86 25.5)"><path d="M12.75 0 M12.75 0 C44.44 0.09, 79.92 0.84, 159.25 0 M12.75 0 C51.63 -1.95, 90.2 -0.01, 159.25 0 M159.25 0 C166.21 1.8, 170.89 4.5, 172 12.75 M159.25 0 C169.32 -0.3, 172.53 4.4, 172 12.75 M172 12.75 C172.82 23.4, 171.73 31.77, 172 38.25 M172 12.75 C171.41 20.96, 171.7 28.79, 172 38.25 M172 38.25 C170.37 47.72, 168.01 50.57, 159.25 51 M172 38.25 C171.2 44.56, 166.95 50.76, 159.25 51 M159.25 51 C118.63 51.76, 78.25 52.09, 12.75 51 M159.25 51 C103.09 49.89, 47.13 50.32, 12.75 51 M12.75 51 C3.15 52.36, -0.4 45.68, 0 38.25 M12.75 51 C3.43 50.37, -0.86 48.24, 0 38.25 M0 38.25 C0.75 31.31, -1.3 21.77, 0 12.75 M0 38.25 C-0.19 33.46, 0.15 26.86, 0 12.75 M0 12.75 C-1.17 4.34, 3.83 -0.82, 12.75 0 M0 12.75 C-1.55 6.08, 3.18 0.74, 12.75 0" stroke="#1e1e1e" stroke-width="1" fill="none"></path></g><g transform="translate(525.8866729736328 591) rotate(0 54.77995300292969 12.5)"><text x="54.77995300292969" y="0" font-family="HanziPen SC, HanziPen Remote, Virgil, KaiTi, Segoe UI Emoji" font-size="20px" fill="#1e1e1e" text-anchor="middle" style="white-space: pre;" direction="ltr" dominant-baseline="text-before-edge">TaskSlotTable</text></g><g stroke-linecap="round" transform="translate(449.9998779296875 174) rotate(0 122.3333740234375 73.33332824707031)"><path d="M32 0 M32 0 C99.16 2.44, 168.41 2.51, 212.67 0 M32 0 C69.96 0.81, 108.01 -0.41, 212.67 0 M212.67 0 C232.55 0.42, 242.88 9.38, 244.67 32 M212.67 0 C233.44 -1.83, 246.11 11.68, 244.67 32 M244.67 32 C242.75 61.45, 245.46 93.4, 244.67 114.67 M244.67 32 C244.43 60.07, 245.7 90.35, 244.67 114.67 M244.67 114.67 C243.65 134.68, 232.96 148.6, 212.67 146.67 M244.67 114.67 C246.67 134.43, 235.01 146.74, 212.67 146.67 M212.67 146.67 C143.32 147.35, 71.74 147.76, 32 146.67 M212.67 146.67 C166.23 145.54, 118.79 144.48, 32 146.67 M32 146.67 C11.76 146.66, 0.07 137.42, 0 114.67 M32 146.67 C8.69 146.65, 0.28 136.69, 0 114.67 M0 114.67 C-1.19 94.93, -0.22 71.16, 0 32 M0 114.67 C1.42 88.71, 1.21 60.63, 0 32 M0 32 C-1.89 10.94, 10.86 -0.7, 32 0 M0 32 C-0.09 10.71, 11.88 0.9, 32 0" stroke="#1e1e1e" stroke-width="1" fill="none"></path></g><g transform="translate(508.66668701171875 185.33331298828125) rotate(0 66.89994049072266 12.5)"><text x="0" y="0" font-family="HanziPen SC, HanziPen Remote, Virgil, KaiTi, Segoe UI Emoji" font-size="20px" fill="#1e1e1e" text-anchor="start" style="white-space: pre;" direction="ltr" dominant-baseline="text-before-edge">ResourceManager</text></g><g stroke-linecap="round" transform="translate(488.66656494140625 240) rotate(0 86 25.5)"><path d="M12.75 0 M12.75 0 C61.88 0.8, 114.47 -1.53, 159.25 0 M12.75 0 C67.3 0.86, 122.4 0.01, 159.25 0 M159.25 0 C167.26 -1.59, 173.26 5.13, 172 12.75 M159.25 0 C169.43 -2.09, 171.48 2.91, 172 12.75 M172 12.75 C173.15 18.78, 173.6 23.97, 172 38.25 M172 12.75 C171.74 18.07, 171.73 25.69, 172 38.25 M172 38.25 C173.74 45.39, 168.63 51.07, 159.25 51 M172 38.25 C174.14 46.09, 168.13 52.88, 159.25 51 M159.25 51 C111.63 52.84, 64.22 52.23, 12.75 51 M159.25 51 C113.18 49.7, 66.05 50.42, 12.75 51 M12.75 51 C2.53 50.99, 0.24 47.35, 0 38.25 M12.75 51 C3.29 52.59, -0.93 46.04, 0 38.25 M0 38.25 C0.45 26.92, 0.15 20.3, 0 12.75 M0 38.25 C-1.09 28.44, -0.04 18.01, 0 12.75 M0 12.75 C-0.08 4.28, 5.31 0.78, 12.75 0 M0 12.75 C0.88 4.6, 4.16 -0.51, 12.75 0" stroke="#1e1e1e" stroke-width="1" fill="none"></path></g><g transform="translate(527.2266082763672 253) rotate(0 47.43995666503906 12.5)"><text x="47.43995666503906" y="0" font-family="HanziPen SC, HanziPen Remote, Virgil, KaiTi, Segoe UI Emoji" font-size="20px" fill="#1e1e1e" text-anchor="middle" style="white-space: pre;" direction="ltr" dominant-baseline="text-before-edge">SlotManager</text></g><g mask="url(#mask-9fC-yf9kpOMMWigKFPi0h)" stroke-linecap="round"><g transform="translate(256.66668701171875 420.6667175292969) rotate(0 97.08323176652192 -87.61046419888736)"><path d="M-0.39 0.67 C32.08 -28.66, 162.06 -146.42, 194.56 -175.89 M1.6 -0.02 C33.93 -29.21, 161.53 -145.43, 193.55 -174.65" stroke="#1e1e1e" stroke-width="1" fill="none"></path></g><g transform="translate(256.66668701171875 420.6667175292969) rotate(0 97.08323176652192 -87.61046419888736)"><path d="M180.75 -148.26 C182.52 -155.54, 185.89 -163.73, 194.94 -174.82 M179.93 -147.24 C183.9 -156.22, 187.14 -163.58, 194.09 -174.45" stroke="#1e1e1e" stroke-width="1" fill="none"></path></g><g transform="translate(256.66668701171875 420.6667175292969) rotate(0 97.08323176652192 -87.61046419888736)"><path d="M166.93 -163.43 C172.54 -166.46, 179.73 -170.45, 194.94 -174.82 M166.1 -162.41 C174.5 -166.72, 182.01 -169.4, 194.09 -174.45" stroke="#1e1e1e" stroke-width="1" fill="none"></path></g></g><mask id="mask-9fC-yf9kpOMMWigKFPi0h"><rect x="0" y="0" fill="#fff" width="551.3333740234375" height="696.0001068115234"></rect><rect x="319.7200469970703" y="320.5000228881836" fill="#000" width="68.55996704101562" height="25" opacity="1"></rect></mask><g transform="translate(319.7200469970703 320.5000228881836) rotate(0 34.02987178117036 12.556230442225925)"><text x="34.27998352050781" y="0" font-family="HanziPen SC, HanziPen Remote, Virgil, KaiTi, Segoe UI Emoji" font-size="20px" fill="#1e1e1e" text-anchor="middle" style="white-space: pre;" direction="ltr" dominant-baseline="text-before-edge">申请Slot</text></g><g mask="url(#mask-3bI0avmO50a2v8jFdKyw_)" stroke-linecap="round"><g transform="translate(454.3525434917202 630.2168316307079) rotate(0 -98.00829891967487 -105.12379673262109)"><path d="M-0.67 0.03 C-33.47 -34.81, -163.65 -173.62, -196.17 -208.41 M1.17 -1.01 C-31.84 -36.26, -164.25 -175.9, -197.19 -210.27" stroke="#1e1e1e" stroke-width="1" fill="none"></path></g><g transform="translate(454.3525434917202 630.2168316307079) rotate(0 -98.00829891967487 -105.12379673262109)"><path d="M-170.28 -197.16 C-178.96 -201.39, -188.82 -204.96, -195.85 -211.93 M-171.19 -197.65 C-180.85 -202.13, -191.47 -207.95, -197.2 -209.66" stroke="#1e1e1e" stroke-width="1" fill="none"></path></g><g transform="translate(454.3525434917202 630.2168316307079) rotate(0 -98.00829891967487 -105.12379673262109)"><path d="M-185.14 -183 C-188.7 -192.1, -193.37 -200.61, -195.85 -211.93 M-186.05 -183.5 C-189.71 -193.75, -194.41 -205.21, -197.2 -209.66" stroke="#1e1e1e" stroke-width="1" fill="none"></path></g></g><mask id="mask-3bI0avmO50a2v8jFdKyw_"><rect x="0" y="0" fill="#fff" width="750.391004498598" height="939.1136779027308"></rect><rect x="322.0533294677733" y="513.2684084946964" fill="#000" width="68.55996704101562" height="25" opacity="1"></rect></mask><g transform="translate(322.05332946777344 513.2684084946965) rotate(0 34.2909151042719 11.824626403390369)"><text x="34.27998352050781" y="0" font-family="HanziPen SC, HanziPen Remote, Virgil, KaiTi, Segoe UI Emoji" font-size="20px" fill="#1e1e1e" text-anchor="middle" style="white-space: pre;" direction="ltr" dominant-baseline="text-before-edge">提供Slot</text></g><g mask="url(#mask-wUWNXfdMAq4sSGdSM28dr)" stroke-linecap="round"><g transform="translate(566 320) rotate(0 2.106585865737941 95.92882395635363)"><path d="M-0.79 1.06 C-0.07 32.69, 4.09 158.41, 5.01 190.29 M0.99 0.57 C1.59 32.26, 4.08 159.62, 4.65 191.28" stroke="#1e1e1e" stroke-width="1" fill="none"></path></g><g transform="translate(566 320) rotate(0 2.106585865737941 95.92882395635363)"><path d="M-4.38 165.16 C-3.91 174.73, 3.35 182.74, 4.63 190.65 M-6.77 163.86 C-3.62 171.07, 0.73 180.17, 5.1 191.45" stroke="#1e1e1e" stroke-width="1" fill="none"></path></g><g transform="translate(566 320) rotate(0 2.106585865737941 95.92882395635363)"><path d="M16.14 164.77 C9.31 174.34, 9.26 182.49, 4.63 190.65 M13.75 163.47 C10.7 170.99, 8.85 180.22, 5.1 191.45" stroke="#1e1e1e" stroke-width="1" fill="none"></path></g></g><mask id="mask-wUWNXfdMAq4sSGdSM28dr"><rect x="0" y="0" fill="#fff" width="669.8879076739589" height="611.3333129882812"></rect><rect x="503.6639703164717" y="403.1666564941406" fill="#000" width="128.55996704101562" height="25" opacity="1"></rect></mask><g transform="translate(503.6639703164717 403.1666564941406) rotate(0 64.44261554926624 12.762167462213)"><text x="64.27998352050781" y="0" font-family="HanziPen SC, HanziPen Remote, Virgil, KaiTi, Segoe UI Emoji" font-size="20px" fill="#1e1e1e" text-anchor="middle" style="white-space: pre;" direction="ltr" dominant-baseline="text-before-edge">分配Slot并通知</text></g><g stroke-linecap="round" transform="translate(493.333251953125 10) rotate(0 75 28)"><path d="M14 0 M14 0 C59 0.83, 103.59 1.42, 136 0 M14 0 C56.03 -0.01, 95.61 -1.23, 136 0 M136 0 C145.89 1.33, 148.24 4.76, 150 14 M136 0 C147.17 -0.39, 148.93 3.89, 150 14 M150 14 C149.03 19.56, 149.76 26.32, 150 42 M150 14 C149.83 20.8, 150.32 26.29, 150 42 M150 42 C150.3 53.03, 147.15 54.45, 136 56 M150 42 C149.7 52.88, 143.25 55.3, 136 56 M136 56 C96.61 55.32, 55.47 55.01, 14 56 M136 56 C103.99 55.61, 70.63 56.72, 14 56 M14 56 C4.31 57.84, 0.1 53.33, 0 42 M14 56 C3.06 58.15, -1.56 51.86, 0 42 M0 42 C0.61 34.37, 1.35 28.92, 0 14 M0 42 C-0.25 33.69, -0.86 26.51, 0 14 M0 14 C-1.86 4.56, 3.28 1.28, 14 0 M0 14 C-1.27 3.47, 6.53 -2.13, 14 0" stroke="#1e1e1e" stroke-width="1" fill="none"></path></g><g transform="translate(508.333251953125 25.5) rotate(0 60 12.5)"><text x="60" y="0" font-family="HanziPen SC, HanziPen Remote, Virgil, KaiTi, Segoe UI Emoji" font-size="20px" fill="#1e1e1e" text-anchor="middle" style="white-space: pre;" direction="ltr" dominant-baseline="text-before-edge">资源管理框架</text></g><g mask="url(#mask-WAiu3bc9eJVaedMs-HPDi)" stroke-linecap="round"><g transform="translate(568.6666259765625 173.33334350585938) rotate(0 0.06277935278603763 -53.199202592670915)"><path d="M0.14 -0.51 C-0.12 -18.35, -0.69 -88.22, -0.88 -105.89 M-1.25 -1.82 C-1.19 -18.94, 0.94 -87.01, 1.37 -104.3" stroke="#1e1e1e" stroke-width="1" fill="none"></path></g><g transform="translate(568.6666259765625 173.33334350585938) rotate(0 0.06277935278603763 -53.199202592670915)"><path d="M9.99 -77.3 C7.35 -87.67, 2.84 -97.37, 0.15 -105.93 M11.62 -75.89 C6.47 -85.29, 4.11 -95.08, 1.08 -104.97" stroke="#1e1e1e" stroke-width="1" fill="none"></path></g><g transform="translate(568.6666259765625 173.33334350585938) rotate(0 0.06277935278603763 -53.199202592670915)"><path d="M-10.52 -77.87 C-5.82 -88.07, -2.99 -97.56, 0.15 -105.93 M-8.89 -76.46 C-6.83 -85.67, -1.98 -95.24, 1.08 -104.97" stroke="#1e1e1e" stroke-width="1" fill="none"></path></g></g><mask id="mask-WAiu3bc9eJVaedMs-HPDi"><rect x="0" y="0" fill="#fff" width="668.6666259765625" height="379.33335876464844"></rect><rect x="477.08666229248047" y="107.83333587646484" fill="#000" width="183.15992736816406" height="25" opacity="1"></rect></mask><g transform="translate(477.08666229248047 107.83333587646484) rotate(0 91.64274303686807 12.300805036723617)"><text x="91.57996368408203" y="0" font-family="HanziPen SC, HanziPen Remote, Virgil, KaiTi, Segoe UI Emoji" font-size="20px" fill="#1e1e1e" text-anchor="middle" style="white-space: pre;" direction="ltr" dominant-baseline="text-before-edge">申请创建TaskManager</text></g><g stroke-linecap="round" transform="translate(495 639.8332824707031) rotate(0 86 25.5)"><path d="M12.75 0 M12.75 0 C48.08 -0.75, 86.89 -0.89, 159.25 0 M12.75 0 C46.92 -0.63, 80.68 -1.6, 159.25 0 M159.25 0 C169.4 -1.06, 172.48 5.6, 172 12.75 M159.25 0 C166.91 2, 172.16 2.51, 172 12.75 M172 12.75 C173.14 19.69, 173.22 28.55, 172 38.25 M172 12.75 C172.35 17.61, 172.81 24.4, 172 38.25 M172 38.25 C172.83 46.19, 168.9 52.66, 159.25 51 M172 38.25 C172.07 46.26, 166.42 53.03, 159.25 51 M159.25 51 C111.69 49.59, 66.51 48.76, 12.75 51 M159.25 51 C103.34 52.22, 48.52 52.44, 12.75 51 M12.75 51 C5.61 49.13, 1.57 47.8, 0 38.25 M12.75 51 C4.71 49.95, -2.28 45.96, 0 38.25 M0 38.25 C0.8 33.19, 1.09 25.79, 0 12.75 M0 38.25 C0.01 32.42, 0.96 27.22, 0 12.75 M0 12.75 C0.54 5.89, 4.77 -0.97, 12.75 0 M0 12.75 C2.03 3.63, 3.22 0.87, 12.75 0" stroke="#1e1e1e" stroke-width="1" fill="none"></path></g><g transform="translate(548.3000259399414 652.8332824707031) rotate(0 32.699974060058594 12.5)"><text x="32.699974060058594" y="0" font-family="HanziPen SC, HanziPen Remote, Virgil, KaiTi, Segoe UI Emoji" font-size="20px" fill="#1e1e1e" text-anchor="middle" style="white-space: pre;" direction="ltr" dominant-baseline="text-before-edge">TaskSlot</text></g></svg>